<svg version="1.2" xmlns="http://www.w3.org/2000/svg" xmlns:xlink="http://www.w3.org/1999/xlink" overflow="visible" preserveAspectRatio="none" viewBox="0 0 24 24" width="49" height="49"><g><path xmlns:default="http://www.w3.org/2000/svg" id="window-close" d="M14.9,16.42c-0.13,0.13-0.33,0.14-0.47,0.01c0,0-0.01-0.01-0.01-0.01L12,14l-2.43,2.42  c-0.13,0.13-0.33,0.14-0.47,0.01c0,0-0.01-0.01-0.01-0.01L7.58,14.9c-0.13-0.13-0.14-0.33-0.01-0.47c0,0,0.01-0.01,0.01-0.01L10,12  L7.58,9.57C7.45,9.45,7.44,9.24,7.57,9.1c0,0,0.01-0.01,0.01-0.01L9.1,7.58c0.13-0.13,0.33-0.14,0.47-0.01c0,0,0.01,0.01,0.01,0.01  L12,10l2.43-2.43c0.13-0.13,0.33-0.14,0.47-0.01c0,0,0.01,0.01,0.01,0.01l1.51,1.53c0.13,0.13,0.14,0.33,0.01,0.47  c0,0-0.01,0.01-0.01,0.01L14,12l2.43,2.43c0.13,0.13,0.14,0.33,0.01,0.47c0,0-0.01,0.01-0.01,0.01L14.9,16.42L14.9,16.42z   M20.84,4.49C20.53,4.17,20.1,3.99,19.66,4H4.34C3.42,4,2.67,4.75,2.67,5.67l0,0v12.66c0,0.92,0.75,1.67,1.67,1.67l0,0h15.32  c0.92,0,1.67-0.75,1.67-1.67l0,0V5.67C21.34,5.23,21.16,4.8,20.84,4.49z" style="fill: rgb(218, 43, 31);" vector-effect="non-scaling-stroke"/></g></svg>