<?xml version="1.0" encoding="utf-8"?>
<!-- Generator: Adobe Illustrator 26.5.0, SVG Export Plug-In . SVG Version: 6.00 Build 0)  -->
<svg version="1.1" id="Layer_1" xmlns="http://www.w3.org/2000/svg" xmlns:xlink="http://www.w3.org/1999/xlink" x="0px" y="0px"
	 width="1633.9px" height="844.9px" viewBox="0 0 1633.9 844.9" style="enable-background:new 0 0 1633.9 844.9;"
	 xml:space="preserve">
<style type="text/css">
	.st0{fill:#FFFFFF;}
	.st1{fill:#101820;}
	.st2{fill:#E1251B;}
	.st3{fill-rule:evenodd;clip-rule:evenodd;fill:#101820;}
	.st4{fill-rule:evenodd;clip-rule:evenodd;fill:#FFFFFF;}
	.st5{fill-rule:evenodd;clip-rule:evenodd;fill:#E1251B;}
</style>
<g>
	<path class="st0" d="M1153,149.7l-145.1-145c-31.2,26-98.9,71.4-192.6-3c-94.5,75.1-160,28.3-192.7,3l-145.1,145
		c69.2,80.4,62.8,113.5,29.8,200.9c-14.9,39.4-15.6,65.5-15.6,93c0,40.9,16,85.9,42.4,113.8c41.2,43.5,72.2,51.4,140.6,58
		c61,5.9,106.4,15.6,140.6,60.2c34.2-45.3,81.7-54.6,140.6-60.2c69.7-6.6,100.8-13.7,140.6-58c25-27.8,42.4-72.9,42.4-113.8
		c0-28.6-1.5-52.1-15.6-93C1092.9,263,1083.4,230.1,1153,149.7z M1086.7,550.7c-37.1,39.9-63.3,46.9-130.3,53.6
		c-53.3,5.4-106.3,14.2-141.3,53.6c-35-39.4-87.8-47.6-141.4-53.6c-66.7-7.4-91.8-14.4-130.2-53.6c-24.4-24.8-40.2-67-40.2-107.1
		c0-27.5,3.7-60.8,17.2-95.2c36.1-93,28.1-132.4-27.6-197.9L624,19.5c0,0,84.8,78.1,191.2-4.4c107.1,82.5,191.2,4.4,191.2,4.4
		l131,131c-54.4,65.5-62.2,104.1-27.5,197.9c12.7,34.4,17.1,67.8,17.1,95.2C1126.9,484.5,1110.8,524.8,1086.7,550.7z"/>
	<g>
		<path class="st1" d="M1137.3,150.5l-131-131c0,0-84.1,78.1-191.2-4.4C708.8,97.6,624,19.5,624,19.5l-130.9,131
			c55.7,65.5,63.7,104.9,27.6,197.9c-13.4,34.4-17.2,67.8-17.2,95.2c0,40.1,15.8,82.3,40.2,107.1c38.4,39.1,63.4,46.1,130.2,53.6
			c53.6,6,106.4,14.2,141.4,53.6c35-39.4,87.9-48.2,141.3-53.6c67-6.7,93.1-13.6,130.3-53.6c24.1-25.9,40.1-66.2,40.1-107.1
			c0-27.5-4.4-60.9-17.1-95.2C1075.2,254.6,1082.9,216,1137.3,150.5z M1068.1,537.3c-35.2,35.2-66.9,39-115.3,46.1
			c-55.8,8.2-83.3,7.4-137.6,42.4c-54.3-35-80.4-34.2-137.7-42.4c-49-7-80.4-10.7-115.3-46.1c-49.1-49.9-45.5-120.4-14.9-200.9
			c35.7-93.8,3.7-147.3-25.4-184.5L626.2,47.8c0,0,81.9,64.7,189-5.2c107.1,69.9,188.9,5.2,188.9,5.2l104.1,104.1
			c-29.3,37.2-60.3,91.5-25.2,184.5C1113.2,416.6,1118,487.4,1068.1,537.3z"/>
		<path class="st0" d="M1108.3,151.9L1004.1,47.8c0,0-81.8,64.7-188.9-5.2c-107.1,69.9-189,5.2-189,5.2L522,151.9
			c29.1,37.2,61.1,90.8,25.4,184.5c-30.7,80.4-34.2,151,14.9,200.9c34.9,35.4,66.3,39.1,115.3,46.1c57.3,8.2,83.3,7.4,137.7,42.4
			c54.3-35,81.8-34.2,137.6-42.4c48.4-7.1,80.1-10.9,115.3-46.1c49.9-49.9,45-120.7,14.9-200.9C1048,243.5,1079,189.1,1108.3,151.9z
			 M1008.5,176.1c-13.7-8.2-29.2-14.3-28.8-34.3c0-5.5,1.2-26.5,28.7-26.5c27.4,0,29.4,17.3,29,30.9h-19c-0.1-21.2-20.8-18-20.7-4.8
			c0.1,7.3,13.4,15,24.5,21.7c9.9,6.1,16.7,16,17,26.7c0.2,9.4-4.1,27.2-30.9,27.2c-27.3,0-29.5-20.3-29.6-31.8H997
			c0,23.5,22.1,20.7,22.3,5.3C1019.3,190.5,1020.7,183.4,1008.5,176.1z M915.9,118.3h19.4c6.7,0,38.8-3.6,37.8,34.2
			c-0.8,34.1-32.5,30.8-37.8,31v31.6h-19.4V118.3z M877.4,118.7h19.4v96h-19.4V118.7z M827.6,118.7h19.4v80.9h21v15.1h-40.3V118.7z
			 M777.6,118.5h19.3v81h21v15h-40.3V118.5z M738.8,118.7h19.4v96h-19.4V118.7z M664.2,118.7H682v38h18.5v-38h18.8v96h-18.8v-41.1
			H682v41.1h-17.9V118.7z M597,118.3h19.4c6.7,0,38.8-3.6,37.8,34.2c-0.7,34.1-32.4,30.8-37.8,31v31.6H597V118.3z M975.8,553
			c-66,10.1-101.8,6.8-160.6,39.4c-58.9-32.6-90.3-28.2-160.7-39.4c-117.6-18.8-104.8-121.2-97.7-153.3c1.3-6.1,3.9-16.2,5.8-21.9
			c8.8-25.1,31.4-79.1,27.2-132.1h450.8c-3.4,50.7,17.2,101.4,26.4,127.9c2.7,7.7,5.9,21.9,7.7,30.9
			C1081.8,441.2,1088.7,535.6,975.8,553z"/>
		<path class="st2" d="M1074.6,404.6c-1.8-9-5-23.2-7.7-30.9c-9.1-26.5-29.8-77.2-26.4-127.9H589.8c4.2,52.9-18.4,106.9-27.2,132.1
			c-2,5.6-4.5,15.8-5.8,21.9c-7.1,32.1-19.9,134.5,97.7,153.3c70.5,11.2,101.8,6.8,160.7,39.4c58.8-32.6,94.7-29.3,160.6-39.4
			C1088.7,535.6,1081.8,441.2,1074.6,404.6z M804.7,347.3l-53.2-3.9c0,0,3.4-21.9-11.9-21.9c-23.4,0-38.5,49.9-38.5,49.9
			s22.4-18.9,57.5-6.2c39.8,14.4,30,65.3,10,98.1c-24.9,40.9-79.5,45.9-111.6,33.5c-51.3-19.7-35.8-76.8-18.9-123.9
			c23.8-66.2,69.2-100.1,132.4-79.2C803.3,304.5,808,337.7,804.7,347.3z M1000.8,347.3l-53.2-3.9c0,0,3.3-21.9-11.9-21.9
			c-23.4,0-38.5,49.9-38.5,49.9s22.4-18.9,57.5-6.2c39.8,14.4,30,65.3,10,98.1c-24.9,40.9-79.4,45.9-111.6,33.5
			c-51.3-19.7-35.8-76.8-18.9-123.9c24.2-67.7,71-99.7,132.4-79.2C999.4,304.6,1004.1,337.7,1000.8,347.3z"/>
		<g>
			<polygon class="st1" points="719.3,118.7 719.3,214.7 700.5,214.7 700.5,173.6 682,173.6 682,214.7 664.2,214.7 664.2,118.7 
				682,118.7 682,156.7 700.5,156.7 700.5,118.7 			"/>
			<rect x="738.8" y="118.7" class="st1" width="19.4" height="96"/>
			<path class="st1" d="M1008.4,217c-27.3,0-29.5-20.3-29.6-31.8H997c0,23.5,22.1,20.7,22.3,5.3c0,0,1.3-7.2-10.8-14.5
				c-13.7-8.2-29.2-14.3-28.8-34.3c0-5.5,1.2-26.5,28.7-26.5c27.4,0,29.4,17.3,29,30.9h-19c-0.1-21.2-20.8-18-20.7-4.8
				c0.1,7.3,13.4,15,24.5,21.7c9.9,6.1,16.7,16,17,26.7C1039.4,199.3,1035.1,217,1008.4,217z"/>
			<polygon class="st1" points="867.9,199.6 867.9,214.7 827.6,214.7 827.6,118.7 846.9,118.7 846.9,199.6 			"/>
			<polygon class="st1" points="817.9,199.5 817.9,214.5 777.6,214.5 777.6,118.5 796.9,118.5 796.9,199.5 			"/>
			<path class="st3" d="M616.4,118.3H597v96.8h19.4v-31.6c5.4-0.2,37.1,3.1,37.8-31C655.2,114.8,623.1,118.3,616.4,118.3z
				 M616.4,167.6v-34.7c3.9,0,19.9-2.2,20,17C636.4,171.5,619.3,167.6,616.4,167.6z"/>
			<path class="st4" d="M636.4,149.9c0,21.6-17.1,17.7-20,17.7v-34.7C620.3,132.9,636.3,130.7,636.4,149.9z"/>
			<path class="st3" d="M935.3,118.3h-19.4v96.8h19.4v-31.6c5.4-0.2,37.1,3.1,37.8-31C974.1,114.8,942,118.3,935.3,118.3z
				 M935.3,167.6v-34.7c3.9,0,19.8-2.2,19.9,17C955.2,171.5,938.1,167.6,935.3,167.6z"/>
			<path class="st4" d="M955.2,149.9c0,21.6-17.1,17.7-19.9,17.7v-34.7C939.2,132.9,955.1,130.7,955.2,149.9z"/>
			<rect x="877.4" y="118.7" class="st1" width="19.4" height="96"/>
		</g>
		<path class="st4" d="M1000.8,347.3c3.3-9.6-1.4-42.7-34.2-53.5c-61.4-20.5-108.2,11.5-132.4,79.2
			c-16.8,47.1-32.3,104.1,18.9,123.9c32.2,12.4,86.7,7.4,111.6-33.5c20-32.8,29.8-83.7-10-98.1c-35.1-12.7-57.5,6.2-57.5,6.2
			s15.1-49.9,38.5-49.9c15.3,0,11.9,21.9,11.9,21.9L1000.8,347.3z M910.4,393.7c17.8,3.7,11.7,27.4,5.4,44.2
			c-6.3,17-18.9,35.4-34.3,31.2c-14.3-3.8-8.4-30.6-0.9-47.6C887.2,406.8,897.2,391,910.4,393.7z"/>
		<path class="st5" d="M915.9,438c-6.3,17-18.9,35.4-34.3,31.2c-14.3-3.8-8.4-30.6-0.9-47.6c6.5-14.8,16.6-30.6,29.8-27.9
			C928.2,397.4,922.1,421.1,915.9,438z"/>
		<path class="st4" d="M804.7,347.3c3.3-9.6-1.4-42.8-34.2-53.5c-63.2-20.9-108.6,13-132.4,79.2c-16.9,47-32.4,104.1,18.9,123.9
			c32.2,12.4,86.7,7.4,111.6-33.5c19.9-32.8,29.7-83.7-10-98.1c-35.1-12.7-57.5,6.2-57.5,6.2s15.1-49.9,38.5-49.9
			c15.3,0,11.9,21.9,11.9,21.9L804.7,347.3z M714.3,393.7c17.9,3.7,11.7,27.4,5.5,44.2c-6.3,17-18.8,35.4-34.3,31.2
			c-14.4-3.8-8-30.6-0.5-47.6C691.6,406.8,701.1,391,714.3,393.7z"/>
		<path class="st5" d="M719.8,438c-6.3,17-18.8,35.4-34.3,31.2c-14.4-3.8-8-30.6-0.5-47.6c6.6-14.8,16.1-30.6,29.3-27.9
			C732.2,397.4,726,421.1,719.8,438z"/>
	</g>
</g>
<g>
	<path class="st1" d="M1131.4,582.9c11.8,0,21.7,9.3,21.7,21.5c0,12.4-9.9,21.8-21.7,21.8c-11.9,0-21.8-9.3-21.8-21.8
		C1109.6,592.2,1119.5,582.9,1131.4,582.9z M1131.4,623c10,0,17.8-8,17.8-18.6c0-10.4-7.7-18.4-17.8-18.4c-10.1,0-17.9,8-17.9,18.4
		C1113.5,615,1121.2,623,1131.4,623z M1122.9,591.8h9.8c6,0,8.9,2.4,8.9,7.2c0,4.6-2.9,6.5-6.7,6.9l7.2,11.2h-4.2l-6.9-10.9h-4.2
		v10.9h-3.9V591.8z M1126.9,603.1h4.1c3.5,0,6.7-0.2,6.7-4.2c0-3.4-2.9-3.9-5.6-3.9h-5.2V603.1z"/>
</g>
<path class="st1" d="M4.7,778.8h22.7c15.4,0,18.4,11.2,18.4,18.9c0,11.2-5.3,19-20,19h-6.4V841H4.7V778.8z M19.4,805.9h4
	c5.8,0,7.2-3.7,7.2-7.8c0-4.8-1.6-8.5-7.5-8.5h-3.7V805.9z"/>
<path class="st1" d="M61,778.8h24.6c12.5,0,16.7,7.7,16.7,16.2c0,9.1-3.7,13.5-10.5,15.2v0.2c9.3,1.3,9.8,7.1,10,15.5
	c0.3,12.3,0.7,13.5,2.8,14.4v0.8H88.9c-1.1-2.1-1.6-5.6-1.6-12.6c0-10.8-1.5-13.1-6.1-13.1h-5.6V841H61V778.8z M75.7,805h4.5
	c5.9,0,7.5-4.4,7.5-8.1c0-4.7-1.7-7.8-7.6-7.8h-4.4V805z"/>
<path class="st1" d="M139.4,842.3c-19.3,0-21.9-12.6-21.9-32.3s2.6-32.3,21.9-32.3c20.7,0,21.9,15.1,21.9,32.3
	C161.3,827.2,160.1,842.3,139.4,842.3z M139.3,832.5c5.9,0,6.8-5.5,6.8-22.6s-0.9-22.6-6.8-22.6c-5.8,0-6.6,5.5-6.6,22.6
	S133.6,832.5,139.3,832.5z"/>
<path class="st1" d="M171.4,778.8h15.7l7.4,48.1h0.2l7.5-48.1h15.7L203.7,841h-18.7L171.4,778.8z"/>
<path class="st1" d="M230.6,778.8h14.6V841h-14.6V778.8z"/>
<path class="st1" d="M262.5,778.8h21.7c14.5,0,20.7,7.5,20.7,29.1c0,22.6-2.9,33.1-22.1,33.1h-20.2V778.8z M277.1,830.2h3.9
	c6.8,0,9.2-2.7,9.2-21.4c0-15.2-1.2-19.3-9-19.3h-4.1V830.2z"/>
<path class="st1" d="M320.6,778.8h14.6V841h-14.6V778.8z"/>
<path class="st1" d="M352.4,778.8h16.8l12,40.4h0.2v-40.4H395V841h-16.6l-12.8-42.9h-0.2V841h-13.1V778.8z"/>
<path class="st1" d="M438.3,797.7c0-4-0.4-10.4-5.8-10.4c-6,0-6.7,6.1-6.7,22.7c0,17,0.9,22.5,6.7,22.5c5,0,6.7-4.5,6.7-13.1v-2
	h-6.9v-9.8h20.5V841h-10l-0.3-5.9h-0.2c-2.3,5.6-7.8,7.1-13.4,7.1c-15.6,0-18.2-11.6-18.2-31c0-20.4,1.4-33.6,22.1-33.6
	c18.9,0,19.7,13.1,19.7,20.1H438.3z"/>
<path class="st1" d="M498.7,778.8h36v11.9h-21.4v12.5h20V815h-20v14.2h22.3V841h-37V778.8z"/>
<path class="st1" d="M550.2,778.8H567l12,40.4h0.2v-40.4h13.6V841h-16.6l-12.8-42.9h-0.2V841h-13.1V778.8z"/>
<path class="st1" d="M609.7,778.8h36v11.9h-21.4v12.5h20V815h-20v14.2h22.3V841h-37V778.8z"/>
<path class="st1" d="M661.1,778.8h24.6c12.5,0,16.7,7.7,16.7,16.2c0,9.1-3.7,13.5-10.5,15.2v0.2c9.3,1.3,9.8,7.1,10,15.5
	c0.3,12.3,0.7,13.5,2.8,14.4v0.8H689c-1.1-2.1-1.6-5.6-1.6-12.6c0-10.8-1.5-13.1-6.1-13.1h-5.6V841h-14.6V778.8z M675.8,805h4.5
	c5.9,0,7.5-4.4,7.5-8.1c0-4.7-1.7-7.8-7.6-7.8h-4.4V805z"/>
<path class="st1" d="M745.3,797.7c0-4-0.4-10.4-5.8-10.4c-6,0-6.7,6.1-6.7,22.7c0,17,0.9,22.5,6.7,22.5c5,0,6.7-4.5,6.7-13.1v-2
	h-6.9v-9.8h20.5V841h-10l-0.3-5.9h-0.2c-2.3,5.6-7.8,7.1-13.4,7.1c-15.6,0-18.2-11.6-18.2-31c0-20.4,1.4-33.6,22.1-33.6
	c18.9,0,19.7,13.1,19.7,20.1H745.3z"/>
<path class="st1" d="M786.8,816.5L771,778.8h16.2l7,23.1h0.2l7.1-23.1h15.7l-15.8,37.7V841h-14.6V816.5z"/>
<path class="st1" d="M811.3,825.3h13.6V841h-13.6V825.3z"/>
<path class="st1" d="M869.3,778.8H884V841h-14.6V778.8z"/>
<path class="st1" d="M901.6,778.8H923l7.7,40.9h0.2l7.4-40.9h21.2V841h-13.6v-48.5h-0.2l-9.5,48.5h-11.3l-10-48.5h-0.2V841h-13.1
	V778.8z"/>
<path class="st1" d="M976.8,778.8h22.7c15.4,0,18.4,11.2,18.4,18.9c0,11.2-5.3,19-20,19h-6.4V841h-14.6V778.8z M991.5,805.9h4
	c5.8,0,7.2-3.7,7.2-7.8c0-4.8-1.6-8.5-7.5-8.5h-3.7V805.9z"/>
<path class="st1" d="M1033.1,778.8h24.6c12.5,0,16.7,7.7,16.7,16.2c0,9.1-3.7,13.5-10.5,15.2v0.2c9.3,1.3,9.8,7.1,10,15.5
	c0.3,12.3,0.7,13.5,2.8,14.4v0.8H1061c-1.1-2.1-1.6-5.6-1.6-12.6c0-10.8-1.5-13.1-6.1-13.1h-5.6V841h-14.6V778.8z M1047.8,805h4.5
	c5.9,0,7.5-4.4,7.5-8.1c0-4.7-1.7-7.8-7.6-7.8h-4.4V805z"/>
<path class="st1" d="M1111.5,842.3c-19.3,0-21.9-12.6-21.9-32.3s2.6-32.3,21.9-32.3c20.7,0,21.9,15.1,21.9,32.3
	C1133.3,827.2,1132.2,842.3,1111.5,842.3z M1111.4,832.5c5.9,0,6.8-5.5,6.8-22.6s-0.9-22.6-6.8-22.6c-5.8,0-6.6,5.5-6.6,22.6
	S1105.6,832.5,1111.4,832.5z"/>
<path class="st1" d="M1143.5,778.8h15.7l7.4,48.1h0.2l7.5-48.1h15.7l-14.1,62.2h-18.7L1143.5,778.8z"/>
<path class="st1" d="M1202.7,778.8h14.6V841h-14.6V778.8z"/>
<path class="st1" d="M1234.5,778.8h16.8l12,40.4h0.2v-40.4h13.6V841h-16.6l-12.8-42.9h-0.2V841h-13.1V778.8z"/>
<path class="st1" d="M1320.4,797.7c0-4-0.4-10.4-5.8-10.4c-6,0-6.7,6.1-6.7,22.7c0,17,0.9,22.5,6.7,22.5c5,0,6.7-4.5,6.7-13.1v-2
	h-6.9v-9.8h20.5V841h-10l-0.3-5.9h-0.2c-2.3,5.6-7.8,7.1-13.4,7.1c-15.6,0-18.2-11.6-18.2-31c0-20.4,1.4-33.6,22.1-33.6
	c18.9,0,19.7,13.1,19.7,20.1H1320.4z"/>
<path class="st1" d="M1380.9,778.8h14.6v50.4h21.2V841h-35.8V778.8z"/>
<path class="st1" d="M1429.3,778.8h14.6V841h-14.6V778.8z"/>
<path class="st1" d="M1456.8,778.8h15.7l7.4,48.1h0.2l7.5-48.1h15.7l-14.1,62.2h-18.7L1456.8,778.8z"/>
<path class="st1" d="M1515.8,778.8h36v11.9h-21.4v12.5h20V815h-20v14.2h22.3V841h-37V778.8z"/>
<path class="st1" d="M1579.3,822v2.2c0,4.7,1.3,8.3,6.4,8.3c5.1,0,6.6-3.8,6.6-7.4c0-13.4-26.8-5.9-26.8-29.2
	c0-9.9,5.3-18.3,20.4-18.3c14.6,0,19.9,7.4,19.9,17v1.5h-14.1c0-3-0.3-5.1-1.2-6.5c-0.9-1.5-2.3-2.2-4.4-2.2c-3.7,0-5.8,2.2-5.8,6.7
	c0,13,26.8,6.5,26.8,28.4c0,14.1-7.8,19.8-21.3,19.8c-10.6,0-20.5-3.2-20.5-16.2v-4H1579.3z"/>
<path class="st1" d="M1615.6,825.3h13.6V841h-13.6V825.3z"/>
</svg>
